<svg width="140" height="34" viewBox="0 0 140 34" fill="none" xmlns="http://www.w3.org/2000/svg">
<g id="Logo_white&#38;green">
<path id="Path" d="M17.1 15.8L20.6 20.3L28 12L31.8 7.7C30.9 6.5 30 5.3 28.9 4.4C25.9 1.7 22 0 17.7 0C8.5 0 1.1 7.5 1.1 16.6C1.1 19.6 1.9 22.5 3.4 25L7.1 20.1C6.7 19 6.5 17.8 6.5 16.6C6.5 10.4 11.6 5.3 17.8 5.3C20.7 5.3 23.4 6.4 25.4 8.3L21.6 12.5L17.7 7.6L7.4 21.1L3.8 25.8L0 30.8L4.5 26.9L8.6 23.3L17.1 15.8Z" fill="#00AA5D"/>
<path id="Path_2" d="M17.7 27.9002C14.3 27.9002 11.2 26.3002 9.1 23.9002L5 27.5002C8.1 31.1002 12.6 33.3002 17.6 33.3002C23.1 33.3002 27.9 30.7002 30.9 26.6002L26.3 23.7002C24.4 26.2002 21.2 27.9002 17.7 27.9002Z" fill="#00AA5D"/>
<path id="Path_3" d="M38 9.2002H39.6V23.2002H38V9.2002Z" fill="white"/>
<path id="Shape" fill-rule="evenodd" clip-rule="evenodd" d="M47.1 13.1001C44.1 13.1001 42 15.3001 42 18.2001C42 21.3001 44.2 23.5001 47.2 23.5001C49.3 23.5001 51 22.5001 51.8 20.8001L50.5 20.1001C49.9 21.3001 48.6 22.0001 47.2 22.0001C45.2 22.0001 43.8 20.7001 43.6 18.8001H52.1V18.2001C52.1 15.2001 50 13.1001 47.1 13.1001ZM47 14.6001C48.9 14.6001 50.2 15.8001 50.5 17.5001H43.6C43.9 15.8001 45.2 14.6001 47 14.6001Z" fill="white"/>
<path id="Path_4" d="M54.1 18.4002C54.1 15.4002 56.2 13.2002 59.1 13.2002C61.5 13.2002 63.4 14.7002 63.8 16.7002L62.3 16.9002C62 15.5002 60.6 14.6002 59.2 14.6002C57.2 14.6002 55.7 16.1002 55.8 18.3002C55.8 20.5002 57.3 22.1002 59.2 22.1002C60.7 22.1002 62 21.2002 62.4 19.8002L64 20.0002C63.6 22.0002 61.6 23.5002 59.3 23.5002C56.1 23.5002 54 21.4002 54.1 18.4002Z" fill="white"/>
<path id="Path_5" d="M66.6 20.7004V14.8004H65V13.5004H66.6L67 10.4004H68.2V13.5004H70.7V14.8004H68.2V20.6004C68.2 21.5004 68.8 22.2004 69.7 22.2004C70 22.2004 70.5 22.1004 70.8 22.0004V23.3004C70.3 23.5004 69.7 23.5004 69.2 23.5004C67.7 23.5004 66.6 22.4004 66.6 20.7004Z" fill="white"/>
<path id="Path_6" d="M73.2 13.6004H74.7V14.9004H74.9C75.3 14.0004 76.4 13.4004 77.5 13.4004C77.9 13.4004 78.4 13.5004 78.7 13.6004V15.1004C78.2 14.9004 77.6 14.8004 77.3 14.8004C75.9 14.8004 74.8 16.1004 74.8 18.0004V23.2004H73.2V13.6004Z" fill="white"/>
<path id="Shape_2" fill-rule="evenodd" clip-rule="evenodd" d="M84.9 13.2002C81.9 13.2002 79.8 15.4002 79.8 18.4002C79.8 21.4002 82 23.5002 84.9 23.6002C87.9 23.6002 90 21.4002 90 18.4002C90 15.3002 87.9 13.2002 84.9 13.2002ZM84.9 14.7002C87 14.7002 88.5 16.2002 88.5 18.4002C88.5 20.5002 87 22.1002 84.9 22.2002C82.8 22.2002 81.3 20.6002 81.3 18.4002C81.3 16.3002 82.8 14.7002 84.9 14.7002Z" fill="white"/>
<path id="Path_7" d="M92.9 9.80029H95.4L101.7 20.9003H101.9V9.80029H103.6V23.2003H101.1L94.8 12.1003H94.6V23.2003H92.9V9.80029Z" fill="white"/>
<path id="Shape_3" fill-rule="evenodd" clip-rule="evenodd" d="M111.5 13.1001C108.5 13.1001 106.4 15.3001 106.4 18.2001C106.4 21.3001 108.6 23.5001 111.6 23.4001C113.7 23.4001 115.4 22.4001 116.2 20.8001L114.9 20.1001C114.3 21.3001 113 22.0001 111.6 22.0001C109.6 22.0001 108.2 20.7001 108 18.8001H116.5V18.2001C116.5 15.2001 114.4 13.1001 111.5 13.1001ZM111.4 14.6001C113.3 14.6001 114.6 15.8001 114.9 17.5001H108C108.3 15.8001 109.6 14.6001 111.4 14.6001Z" fill="white"/>
<path id="Shape_4" fill-rule="evenodd" clip-rule="evenodd" d="M123.6 13.1001C120.6 13.1001 118.5 15.3001 118.5 18.2001C118.5 21.3001 120.6 23.5001 123.7 23.4001C125.8 23.4001 127.5 22.4001 128.3 20.8001L127 20.1001C126.4 21.3001 125.1 22.0001 123.7 22.0001C121.7 22.0001 120.3 20.7001 120.1 18.8001H128.6V18.2001C128.6 15.2001 126.5 13.1001 123.6 13.1001ZM123.4 14.6001C125.3 14.6001 126.6 15.8001 126.9 17.5001H120C120.3 15.8001 121.6 14.6001 123.4 14.6001Z" fill="white"/>
<path id="Path_8" d="M131 9.2002H132.6V17.7002H132.8L136.9 13.6002H139L134.3 18.2002L139.1 23.2002H137L132.8 18.7002H132.6V23.2002H131V9.2002Z" fill="white"/>
</g>
</svg>
